<svg width="111" height="14" viewBox="0 0 111 14" fill="none" xmlns="http://www.w3.org/2000/svg">
<path fill-rule="evenodd" clip-rule="evenodd" d="M0.5 13.7655H2.04921V7.67354H9.97214V13.7655H11.5213V0.234536H9.97214V6.24828H2.04921V0.234536H0.5V13.7655ZM16.5715 13.7655H18.1573L19.7858 10.1873H27.2574L28.8676 13.7655H30.5327L24.281 0.132302H22.8294L16.5715 13.7655ZM20.3958 8.81615L23.5308 1.91237L26.6475 8.81615H20.3958ZM35.5829 13.7655H37.0955V2.6701L45.9577 13.7655H47.1959V0.234536H45.6833V11.0833L37.0345 0.234536H35.5829V13.7655ZM59.7969 14C62.1085 14 64.0298 13.0498 65.3046 11.9313V6.53694H59.6383V7.90808H63.8163V11.2698C62.877 12.0215 61.4254 12.6229 59.8579 12.6229C56.5216 12.6229 54.4235 10.2234 54.4235 6.99399C54.4235 3.939 56.6009 1.40722 59.6383 1.40722C61.5779 1.40722 62.7551 2.04467 63.8163 2.95275L64.8166 1.7921C63.4443 0.655498 62.0109 0 59.6993 0C55.5762 0 52.8133 3.28952 52.8133 7C52.8133 10.9029 55.4787 14 59.7969 14ZM71.1415 13.7655H80.4185V12.3522H72.6907V0.234536H71.1415V13.7655ZM85.6273 13.7655H95.6483V12.3763H87.1765V7.63746H94.6663V6.24828H87.1765V1.62371H95.5507V0.234536H85.6273V13.7655ZM105.816 13.9579C108.542 13.9579 110.5 12.4485 110.5 10.1271C110.5 8.02234 109.091 6.91581 106.029 6.26031C103.01 5.62285 102.303 4.90722 102.303 3.6323C102.303 2.37543 103.437 1.40722 105.224 1.40722C106.633 1.40722 107.908 1.85223 109.183 2.87457L110.085 1.69588C108.695 0.595361 107.261 0.0360825 105.261 0.0360825C102.65 0.0360825 100.753 1.59966 100.753 3.72852C100.753 5.98969 102.205 6.99399 105.364 7.67354C108.249 8.27491 108.932 8.99055 108.932 10.2474C108.932 11.6186 107.719 12.5868 105.871 12.5868C103.968 12.5868 102.595 11.9493 101.162 10.6744L100.198 11.793C101.851 13.2423 103.638 13.9579 105.816 13.9579Z" fill="#35BDB4"/>
</svg>
